# xmcd
#
# Track frame offsets:
#	150
#	18946
#	43780
#	59937
#	80398
#	101345
#	117532
#	145421
#	163080
#
# Disc length: 2398 seconds
#
# Revision: 0
# Processed by: cddbd v1.5.2PL0 Copyright (c) Steve Scherf et al.
# Submitted via: EZCDAudioConverter 1.0.7.1
#
DISCID=7d095c09
DTITLE=Gwen McCrae - Melody of Life
DYEAR=2013
DGENRE=
TTITLE0=All This Love That I'm Givin'
TTITLE1=I Can Only Think Of You
TTITLE2=Maybe I'll Find Somebody New 
TTITLE3=I Found A Love
TTITLE4=The Joy
TTITLE5=Ease The Pain
TTITLE6=The Melody of Life
TTITLE7=All This Love That I'm Givin'(Single Version)
TTITLE8=The Joy (Single Version)
EXTD=
EXTT0=
EXTT1=
EXTT2=
EXTT3=
EXTT4=
EXTT5=
EXTT6=
EXTT7=
EXTT8=
PLAYORDER=
